<svg width="22" height="16" viewBox="0 0 22 16" fill="none" xmlns="http://www.w3.org/2000/svg">
<path fill-rule="evenodd" clip-rule="evenodd" d="M5.98884 0.89005C9.32441 0.629098 12.6753 0.629098 16.0108 0.89005L18.2508 1.06605C18.8575 1.11335 19.4309 1.36235 19.8797 1.77339C20.3284 2.18442 20.6266 2.73383 20.7268 3.33405C21.2438 6.42405 21.2438 9.57705 20.7268 12.666C20.6267 13.2661 20.3286 13.8154 19.8801 14.2264C19.4315 14.6374 18.8584 14.8865 18.2518 14.934L16.0118 15.109C12.6759 15.3701 9.32474 15.3701 5.98884 15.109L3.74884 14.934C3.14215 14.8868 2.56875 14.6377 2.12002 14.2267C1.67129 13.8157 1.37305 13.2663 1.27284 12.666C0.756709 9.57679 0.756709 6.42331 1.27284 3.33405C1.37301 2.73398 1.6711 2.1847 2.11963 1.77368C2.56816 1.36266 3.14133 1.11356 3.74784 1.06605L5.98784 0.89105L5.98884 0.89005ZM8.99984 10.47V5.53005C8.99992 5.47703 9.01405 5.42499 9.04079 5.37921C9.06752 5.33343 9.10592 5.29555 9.15205 5.26943C9.19819 5.24332 9.25042 5.22989 9.30343 5.23053C9.35645 5.23116 9.40834 5.24583 9.45384 5.27305L13.5708 7.74305C13.6152 7.76973 13.6518 7.80742 13.6773 7.85245C13.7027 7.89748 13.7161 7.94833 13.7161 8.00005C13.7161 8.05177 13.7027 8.10262 13.6773 8.14765C13.6518 8.19268 13.6152 8.23037 13.5708 8.25705L9.45384 10.727C9.40834 10.7543 9.35645 10.7689 9.30343 10.7696C9.25042 10.7702 9.19819 10.7568 9.15205 10.7307C9.10592 10.7045 9.06752 10.6667 9.04079 10.6209C9.01405 10.5751 8.99992 10.5231 8.99984 10.47Z" fill="white"/>
</svg>
